# xmcd
#
# Track frame offsets:
#	150
#	25404
#	41902
#	59919
#	99936
#	120625
#	145162
#	162854
#
# Disc length: 2464 seconds
#
# Revision: 0
# Processed by: cddbd v1.5.2PL0 Copyright (c) Steve Scherf et al.
# Submitted via: audiograbber 1.83.01
#
DISCID=6f099e08
DTITLE=Nexktar - A Tab in the Ocean [CD2]
DYEAR=2011
DGENRE=Progressive Rock
TTITLE0=New Day Dawning)
TTITLE1=Do You Believe in Magic
TTITLE2=Candlelight
TTITLE3=Gooday
TTITLE4=The Life I've Been Leading
TTITLE5=Where Did You Go
TTITLE6=Sealed With A Kiss
TTITLE7=Our Love Will Last Forever
EXTD=
EXTT0=
EXTT1=
EXTT2=
EXTT3=
EXTT4=
EXTT5=
EXTT6=
EXTT7=
PLAYORDER=
